<svg xmlns="http://www.w3.org/2000/svg" viewBox="0 0 300 300" fill="none">
  <g opacity="0.45" fill="#9cad9a">
    <path d="M32 262c24-52 72-98 130-128 34-18 62-40 86-72-4 32-22 64-54 90-42 35-90 56-128 88-12 10-22 20-18 34z" />
    <path d="M64 238c14-28 40-54 70-70 20-12 40-24 56-42-2 22-14 44-34 62-26 22-56 34-78 52-8 6-14 14-14 24z" />
  </g>
  <g opacity="0.38" fill="#8a9b78">
    <path d="M176 118c10-22 24-42 42-58 12-10 26-18 42-22-6 18-18 36-34 50-16 14-30 28-38 48z" />
    <path d="M144 168c6-16 16-32 30-44 12-10 24-18 38-24-4 16-14 32-28 44-14 12-26 24-34 40z" />
  </g>
  <g opacity="0.35" fill="#a8b6a2">
    <path d="M52 222c-4-12-4-24 2-36 6-12 16-24 28-34 2 14-2 28-10 40-6 10-12 20-20 30z" />
    <path d="M94 200c-2-10 0-20 6-30 6-10 14-18 24-26 0 12-4 24-10 34-6 8-12 16-20 22z" />
    <path d="M126 180c-2-8 0-16 4-24 4-8 10-14 18-20 0 10-2 18-8 26-4 6-8 12-14 18z" />
  </g>
</svg>
