<svg xmlns="http://www.w3.org/2000/svg" viewBox="0 0 1200 600" fill="none">
  <path d="M50 420c40-140 220-240 380-220 120 16 200 70 280 120 120 76 250 100 440 70-90 140-260 210-430 200-160-10-220-70-320-120-120-60-250-70-350-50z" fill="#777" opacity="0.35" />
  <path d="M120 180c90-90 260-140 400-110 110 24 170 70 240 120 110 82 250 120 380 110-80 110-220 190-380 200-160 10-230-40-320-110-100-70-220-110-320-90z" fill="#777" opacity="0.3" />
  <path d="M180 520c120-80 300-100 440-60 90 24 160 70 230 110 90 60 210 80 310 60-80 70-190 120-310 120-140 0-210-40-300-90-90-50-190-80-270-80z" fill="#777" opacity="0.25" />
</svg>
