<svg xmlns="http://www.w3.org/2000/svg" viewBox="0 0 1200 600" fill="none">
  <!-- THEME: invitation (corner/edge decoration, center kept empty) -->
  <g stroke="#222" stroke-width="3" stroke-linecap="round" stroke-linejoin="round">
    <!-- Top-left: thin vine + abstract floral curves -->
    <path d="M70 150C80 110 115 85 160 82C215 78 255 110 270 155" />
    <path d="M95 165C120 130 155 118 190 120C230 123 255 150 262 178" />
    <path d="M78 210C100 190 122 186 144 192C170 200 182 228 176 254" />
    <path d="M118 232C130 214 146 206 162 208C182 211 194 232 190 252" />

    <!-- Leaf fragments (simple, CSS-recolor friendly) -->
    <path d="M150 95C142 112 142 130 152 146C170 136 180 118 176 98C168 92 160 90 150 95Z" />
    <path d="M210 110C200 125 198 144 208 160C226 150 240 132 238 112C230 106 222 104 210 110Z" />
    <path d="M120 280C110 295 108 314 118 330C138 320 152 300 148 282C140 276 130 274 120 280Z" />

    <!-- Petals (flat, minimal) -->
    <path d="M285 165C300 160 318 168 326 182C312 192 294 192 282 180C281 173 282 168 285 165Z" />
    <path d="M258 150C270 140 288 142 300 154C288 166 270 168 258 158C254 154 254 152 258 150Z" />
    <path d="M205 190C218 182 236 186 246 198C232 210 214 212 202 202C200 198 201 194 205 190Z" />
  </g>

  <!-- Gold speckle / dots (placeholder color, no gradients) -->
  <g fill="#222">
    <!-- Top-left dots -->
    <circle cx="320" cy="90" r="3" />
    <circle cx="350" cy="110" r="2.5" />
    <circle cx="330" cy="140" r="2" />
    <circle cx="300" cy="120" r="2" />
    <circle cx="360" cy="150" r="3" />
    <circle cx="290" cy="160" r="2.5" />
    <circle cx="340" cy="175" r="2" />

    <!-- Bottom-right dots -->
    <circle cx="880" cy="470" r="3" />
    <circle cx="915" cy="490" r="2.5" />
    <circle cx="940" cy="455" r="2" />
    <circle cx="910" cy="440" r="2" />
    <circle cx="965" cy="485" r="3" />
    <circle cx="890" cy="510" r="2.5" />
    <circle cx="945" cy="520" r="2" />
  </g>

  <g stroke="#222" stroke-width="3" stroke-linecap="round" stroke-linejoin="round">
    <!-- Bottom-right: mirrored vine + curves -->
    <path d="M1130 450C1120 490 1085 515 1040 518C985 522 945 490 930 445" />
    <path d="M1105 435C1080 470 1045 482 1010 480C970 477 945 450 938 422" />
    <path d="M1122 390C1100 410 1078 414 1056 408C1030 400 1018 372 1024 346" />
    <path d="M1082 368C1070 386 1054 394 1038 392C1018 389 1006 368 1010 348" />

    <!-- Leaf fragments -->
    <path d="M1050 505C1058 488 1058 470 1048 454C1030 464 1020 482 1024 502C1032 508 1040 510 1050 505Z" />
    <path d="M990 490C1000 475 1002 456 992 440C974 450 960 468 962 488C970 494 978 496 990 490Z" />
    <path d="M1080 320C1090 305 1092 286 1082 270C1062 280 1048 300 1052 318C1060 324 1070 326 1080 320Z" />

    <!-- Petals -->
    <path d="M915 445C900 440 882 448 874 462C888 472 906 472 918 460C919 453 918 448 915 445Z" />
    <path d="M942 460C930 470 912 468 900 456C912 444 930 442 942 452C946 456 946 458 942 460Z" />
    <path d="M995 420C982 428 964 424 954 412C968 400 986 398 998 408C1000 412 999 416 995 420Z" />

    <!-- Watercolor-inspired organic blobs (flat vector, abstract) -->
    <path d="M70 70C105 40 165 45 198 80C230 114 220 165 182 188C144 210 92 192 70 150C56 124 52 90 70 70Z" />
    <path d="M1130 530C1095 560 1035 555 1002 520C970 486 980 435 1018 412C1056 390 1108 408 1130 450C1144 476 1148 510 1130 530Z" />
  </g>

  <!-- Keep center empty: no elements in the central safe area -->
</svg>
