<svg xmlns="http://www.w3.org/2000/svg" viewBox="0 0 300 300" fill="none">
  <path d="M36 262c22-52 72-104 134-136 36-18 62-40 86-72-4 30-20 64-52 92-44 40-96 62-134 96-12 10-20 20-18 32z" fill="#777" opacity="0.45" />
  <path d="M68 236c12-28 38-54 70-72 22-12 42-24 58-44-2 24-14 46-34 66-28 26-60 38-82 56-8 6-14 14-12 22z" fill="#777" opacity="0.35" />
  <path d="M190 116c12-24 28-46 50-62 14-10 28-18 44-22-6 20-20 38-36 52-18 16-32 30-42 56z" fill="#777" opacity="0.4" />
  <path d="M150 170c6-18 18-34 34-48 12-10 24-18 38-24-4 18-16 34-32 46-14 12-26 24-36 38z" fill="#777" opacity="0.32" />
  <path d="M54 214c-6-10-6-24 2-38 6-12 18-24 32-34 2 16-2 30-10 44-8 12-16 22-24 28z" fill="#777" opacity="0.28" />
  <path d="M102 196c-4-10-2-22 4-32 6-10 16-20 26-28 0 14-4 26-12 36-6 8-12 16-18 24z" fill="#777" opacity="0.3" />
</svg>
