<svg xmlns="http://www.w3.org/2000/svg" viewBox="0 0 800 400" fill="none">
  <circle cx="70" cy="60" r="3" fill="#777" opacity="0.45" />
  <circle cx="140" cy="110" r="2" fill="#777" opacity="0.4" />
  <circle cx="210" cy="70" r="2.5" fill="#777" opacity="0.35" />
  <circle cx="280" cy="140" r="3" fill="#777" opacity="0.5" />
  <circle cx="360" cy="90" r="2" fill="#777" opacity="0.38" />
  <circle cx="430" cy="160" r="2.8" fill="#777" opacity="0.45" />
  <circle cx="520" cy="120" r="2.4" fill="#777" opacity="0.4" />
  <circle cx="600" cy="80" r="2" fill="#777" opacity="0.33" />
  <circle cx="700" cy="150" r="3" fill="#777" opacity="0.42" />
  <circle cx="90" cy="220" r="2.6" fill="#777" opacity="0.4" />
  <circle cx="170" cy="260" r="3" fill="#777" opacity="0.48" />
  <circle cx="260" cy="230" r="2" fill="#777" opacity="0.36" />
  <circle cx="330" cy="280" r="2.4" fill="#777" opacity="0.44" />
  <circle cx="410" cy="240" r="3" fill="#777" opacity="0.5" />
  <circle cx="480" cy="290" r="2" fill="#777" opacity="0.34" />
  <circle cx="560" cy="250" r="2.6" fill="#777" opacity="0.42" />
  <circle cx="640" cy="210" r="2.2" fill="#777" opacity="0.38" />
  <circle cx="730" cy="260" r="2.8" fill="#777" opacity="0.46" />
  <circle cx="120" cy="340" r="2.2" fill="#777" opacity="0.36" />
  <circle cx="220" cy="330" r="2.8" fill="#777" opacity="0.45" />
  <circle cx="310" cy="360" r="2" fill="#777" opacity="0.34" />
  <circle cx="400" cy="330" r="2.5" fill="#777" opacity="0.4" />
  <circle cx="500" cy="350" r="2" fill="#777" opacity="0.35" />
  <circle cx="590" cy="330" r="2.7" fill="#777" opacity="0.43" />
  <circle cx="680" cy="340" r="2.2" fill="#777" opacity="0.37" />
</svg>
